<svg width="54" height="48" viewBox="0 0 54 48" fill="none" xmlns="http://www.w3.org/2000/svg">
<path d="M39.4566 44.3381H3.58699V17.4717H17.3968V3.66194H39.4566V7.19863L43.0436 3.75518V0.0749512H17.3968L3.58699 13.8847L0 17.4717V47.9251H43.0436V26.8051L39.4566 30.5427V44.3381Z" fill="black"/>
<path d="M53.6424 9.52695L48.2292 4.11377C47.7523 3.63684 46.9792 3.63684 46.5024 4.11377L23.6478 26.0631C23.506 26.2048 23.4014 26.3793 23.3431 26.5709L20.5787 35.6536C20.2943 36.5881 21.1679 37.4617 22.1025 37.1773L31.4771 34.3241L53.6424 11.2538C54.1192 10.777 54.1192 10.0038 53.6424 9.52695ZM25.7329 33.8427L23.9529 31.8971L25.1867 27.8421L28.2599 29.4957L29.9139 32.5696L25.7329 33.8427ZM50.2069 8.66243L30.7351 28.258L29.4981 27.0211L49.0946 7.54825L50.207 8.66053C50.2069 8.66137 50.2069 8.66179 50.2069 8.66243Z" fill="black"/>
</svg>
