<svg width="54" height="54" viewBox="0 0 54 54" fill="none" xmlns="http://www.w3.org/2000/svg">
<g clip-path="url(#clip0_1_184)">
<path d="M51.9502 1.88H2.04982C0.919493 1.88 0 2.7995 0 3.92982V41.7534C0 42.8837 0.919493 43.8032 2.04982 43.8032H20.8702V50.3966H12.7427C12.2668 50.3966 11.881 50.7823 11.881 51.2583C11.881 51.7343 12.2668 52.12 12.7427 52.12H41.2573C41.7333 52.12 42.119 51.7343 42.119 51.2583C42.119 50.7823 41.7333 50.3966 41.2573 50.3966H33.1299V43.8032H51.9503C53.0806 43.8032 54.0001 42.8837 54.0001 41.7534V3.92982C54 2.7995 53.0805 1.88 51.9502 1.88ZM31.4065 50.3966H22.5936V43.8032H31.4065V50.3966ZM52.2766 41.7534C52.2766 41.9303 52.1271 42.0798 51.9502 42.0798H2.04982C1.87288 42.0798 1.7234 41.9303 1.7234 41.7534V3.92982C1.7234 3.75289 1.87288 3.60341 2.04982 3.60341H51.9502C52.1271 3.60341 52.2766 3.75289 52.2766 3.92982V41.7534Z" fill="black"/>
<path d="M49.5741 35.0687H4.42605C3.95016 35.0687 3.56435 35.4544 3.56435 35.9304C3.56435 36.4064 3.95016 36.7921 4.42605 36.7921H49.5741C50.0501 36.7921 50.4358 36.4064 50.4358 35.9304C50.4358 35.4544 50.05 35.0687 49.5741 35.0687Z" fill="black"/>
<path d="M14.3233 28.7712C18.1542 31.012 22.5378 32.1964 27 32.1964C31.4624 32.1964 35.8458 31.012 39.6767 28.7712C43.3935 26.5973 46.5115 23.4857 48.6939 19.7729C48.8523 19.5032 48.8523 19.1691 48.6939 18.8994C46.5115 15.1867 43.3934 12.075 39.6767 9.90098C35.8458 7.66021 31.4624 6.47577 27 6.47577C22.5376 6.47577 18.1541 7.66021 14.3233 9.90098C10.6065 12.075 7.48842 15.1867 5.30613 18.8994C5.14769 19.1691 5.14769 19.5032 5.30613 19.7729C7.48842 23.4857 10.6065 26.5973 14.3233 28.7712ZM26.6644 30.4675C20.6781 30.2894 15.8631 25.3647 15.8631 19.3362C15.8631 13.3075 20.6782 8.38277 26.6644 8.20469C26.7763 8.20308 26.8879 8.19917 27 8.19917C27.1121 8.19917 27.2237 8.20308 27.3356 8.20469C33.3218 8.38277 38.1369 13.3075 38.1369 19.3362C38.1369 25.3647 33.3218 30.2893 27.3356 30.4675C27.2237 30.4691 27.1121 30.473 27 30.473C26.8879 30.473 26.7763 30.4691 26.6644 30.4675ZM46.9451 19.3362C44.2839 23.644 40.3127 26.922 35.7281 28.7719C38.2676 26.4212 39.8603 23.0615 39.8603 19.3362C39.8603 15.6108 38.2676 12.2511 35.728 9.9004C40.3126 11.7502 44.2839 15.0283 46.9451 19.3362ZM18.272 9.90029C15.7324 12.2511 14.1397 15.6108 14.1397 19.3362C14.1397 23.0614 15.7324 26.4211 18.272 28.7719C13.6874 26.922 9.71621 23.6441 7.05504 19.3362C9.71609 15.0282 13.6873 11.7502 18.272 9.90029Z" fill="black"/>
<path d="M32.7353 19.336C32.7353 18.5163 32.5643 17.7225 32.2271 16.9766C32.0312 16.5431 31.5209 16.3503 31.087 16.5463C30.6534 16.7423 30.4607 17.2527 30.6567 17.6864C30.8924 18.2078 31.0119 18.7627 31.0119 19.336C31.0119 21.5482 29.2122 23.3479 27 23.3479C24.7878 23.3479 22.9881 21.5482 22.9881 19.336C22.9881 17.1239 24.7878 15.3242 27 15.3242C27.5732 15.3242 28.1283 15.4437 28.6498 15.6794C29.0835 15.8757 29.5938 15.6828 29.7898 15.2491C29.9859 14.8155 29.7932 14.3051 29.3596 14.1091C28.6136 13.7717 27.8197 13.6008 27 13.6008C23.8376 13.6008 21.2647 16.1737 21.2647 19.336C21.2647 22.4984 23.8376 25.0713 27 25.0713C30.1623 25.0713 32.7353 22.4984 32.7353 19.336Z" fill="black"/>
</g>
<defs>
<clipPath id="clip0_1_184">
<rect width="54" height="54" fill="white"/>
</clipPath>
</defs>
</svg>
